<?xml version="1.0" encoding="UTF-8"?>
<svg id="Camada_1" data-name="Camada 1" xmlns="http://www.w3.org/2000/svg" viewBox="0 0 1080 1080">
  <defs>
    <style>
      .cls-1 {
        fill: #fff;
      }

      .cls-2 {
        fill: #19891f;
      }
    </style>
  </defs>
  <circle class="cls-2" cx="542.53" cy="533.02" r="377.44"/>
  <path id="CORACÃO" class="cls-1" d="M806.03,390.46c-4.04,6.82-8.52,15.91-11.8,27.13-5.11,17.5-5.17,32.78-4.36,42.93-1.78-1.26-6.56-4.28-12.8-3.81-8.5.64-14.46,7.36-16.88,12.66-6.7,14.69,7.55,32.04,10.07,35.12,10.7,13.03,25.13,16.89,31.04,18.1-.66-2.94-1.17-7.53,1-11.89,1.34-2.7,3.18-4.23,4.72-5.54,9.91-8.41,14.87-12.62,17.02-16.61.74-1.37,4.81-9.33,1.21-17.33-3.41-7.57-11.22-9.7-11.96-9.89-8.19-2.1-14.51,2.39-15.34,2.99,1.03-6.53,2.06-13.07,3.09-19.6,3.08.27,9.47.39,16.47-2.86,4.96-2.3,8.29-5.39,10.21-7.49-2.21-1.15-5.44-2.53-9.53-3.27-5.03-.91-9.26-.49-11.98,0,2-4.92,4.89-10.86,9.12-17.15,4.54-6.75,9.3-11.96,13.34-15.79-1.16-1.66-3.19-4.05-6.4-5.9-7.12-4.1-14.48-2.3-16.24-1.82Z"/>
  <path class="cls-1" d="M452.26,531.3c2.59,2.36,5.37,4.73,8.35,7.08,10.81,8.52,21.57,14.63,31.22,19.06-27.71,1.85-70.31,8.05-117.61,29.22-42.73,19.12-73.46,43.36-92.93,61.35-4.96-9.2-9.92-18.39-14.88-27.59,17.59-17.52,46.62-42.28,88.21-61.71,38.71-18.08,73.77-24.76,97.65-27.41Z"/>
  <path class="cls-1" d="M634.85,539.83c-17.6-.6-42.82-3.17-71.51-12.34-45.22-14.46-74.43-37.44-96.65-55.27-26.72-21.43-67.54-59.66-102.91-120.61,24.94,27.87,70.95,72.01,141.3,104,58.13,26.44,110.72,34.5,145.38,37.03-.48-13.66-3.35-38.53-19.24-62.8-22.35-34.13-56.93-46.42-79.5-54.09-33.88-11.51-53.31-8.72-83.1-11.91-33.45-3.58-80.02-14.71-135.06-48.71,16.37,51.85,38.45,90.8,56.08,117.07,11.58,17.26,28.51,42.12,57.54,68.43,11.6,10.51,55.34,48.63,109.99,59.9,14.58,3.01,27.18,3.53,40.47.18,18.26-4.6,30.74-14.73,37.21-20.87Z"/>
  <path class="cls-1" d="M614.52,390.28c3.06,2.37,6.32,5.12,9.66,8.3,3.5,3.33,6.52,6.6,9.12,9.66,21.4-42.19,63.91-57.65,90.12-44.65,22.2,11.01,27.5,39.86,28.31,44.65-8.46,3.16-19.88,8.82-29.49,19.5-11.36,12.62-12.47,23.64-20.6,48.02-5.95,17.86-13.22,39.66-27.77,63.71-13.43,22.19-27.3,36.79-35.12,44.92-8.58,8.92-24.46,24.21-47.37,39.48-10.8,7.19-20.29,12.45-27.13,15.97-16.06,8.91-45.12,27.8-69.51,62.44-23.9,33.93-32.02,66.92-35.12,84.94,11.34,2.54,22.69,5.08,34.03,7.62,3.61-16.9,11.74-44.42,31.58-72.96,23.06-33.17,50.71-51.55,66.43-60.44,19.13-11.13,45.69-29.48,71.33-58.26,23.61-26.5,38.21-52.62,47.1-71.87,8.89-18.95,13.97-34.87,16.97-45.92,4.46-16.42,5.25-25.48,13.43-35.94,8.24-10.54,18.44-15.39,25.77-18.88,16.98-8.08,33.2-9.38,44.29-9.08-3.26-5.35-9.36-13.78-19.6-21.05-7.91-5.61-15.5-8.56-20.87-10.16-3.15-10.48-12.33-35.28-35.39-47.19-34.13-17.62-87.13-1.05-120.15,47.19Z"/>
  <circle class="cls-1" cx="710.7" cy="392.8" r="15.04"/>
</svg>